# xmcd
#
# Track frame offsets:
#	150
#	29465
#	54432
#	76720
#	98395
#	118502
#	140427
#	169222
#	196782
#	217967
#	231562
#	251702
#
# Disc length: 3636 seconds
#
# Revision: 1
# Processed by: cddbd v1.4PL0 Copyright (c) Steve Scherf et al.
# Submitted via: audiograbber 1.82.02
#
DISCID=990e320c
DTITLE=Red Archibald and The Internationals - Everything I Got
DYEAR=2000
DGENRE=Blues
TTITLE0=Everything I Got
TTITLE1=Without a Second Thought
TTITLE2=Ain't No Use
TTITLE3=Keep On Loving Me, Baby
TTITLE4=Blue Rhumba
TTITLE5=The Look of Lust
TTITLE6=If You got Yourself a Woman
TTITLE7=Learnin' Bout Love
TTITLE8=Sweet Lolita
TTITLE9=Red's Romp
TTITLE10=Move On
TTITLE11=The Clinton Song
EXTD=
EXTT0=
EXTT1=
EXTT2=
EXTT3=
EXTT4=
EXTT5=
EXTT6=
EXTT7=
EXTT8=
EXTT9=
EXTT10=
EXTT11=
PLAYORDER=
